<mxfile host="app.diagrams.net" agent="Mozilla/5.0 (Windows NT 10.0; Win64; x64) AppleWebKit/537.36 (KHTML, like Gecko) Chrome/109.0.0.0 Safari/537.36" version="24.7.8" pages="3">
  <diagram name="01-Reg@Login" id="q4ly9CBJmxnuTu-2eLOl">
    <mxGraphModel dx="1650" dy="890" grid="1" gridSize="10" guides="1" tooltips="1" connect="1" arrows="1" fold="1" page="1" pageScale="1" pageWidth="827" pageHeight="1169" math="0" shadow="0">
      <root>
        <mxCell id="0" />
        <mxCell id="1" parent="0" />
        <mxCell id="3OcAJqzGk5esR2HYKRDi-7" style="edgeStyle=none;curved=1;rounded=0;orthogonalLoop=1;jettySize=auto;html=1;exitX=1;exitY=1;exitDx=0;exitDy=0;entryX=0.25;entryY=0;entryDx=0;entryDy=0;fontSize=12;startSize=8;endSize=8;" edge="1" parent="1" source="3OcAJqzGk5esR2HYKRDi-3" target="3OcAJqzGk5esR2HYKRDi-6">
          <mxGeometry relative="1" as="geometry" />
        </mxCell>
        <mxCell id="3OcAJqzGk5esR2HYKRDi-13" style="edgeStyle=none;curved=1;rounded=0;orthogonalLoop=1;jettySize=auto;html=1;exitX=0;exitY=1;exitDx=0;exitDy=0;entryX=0.5;entryY=0;entryDx=0;entryDy=0;fontSize=12;startSize=8;endSize=8;" edge="1" parent="1" source="3OcAJqzGk5esR2HYKRDi-3" target="3OcAJqzGk5esR2HYKRDi-8">
          <mxGeometry relative="1" as="geometry" />
        </mxCell>
        <mxCell id="3OcAJqzGk5esR2HYKRDi-3" value="" style="ellipse;html=1;shape=startState;fillColor=#000000;strokeColor=#ff0000;" vertex="1" parent="1">
          <mxGeometry x="400" y="350" width="30" height="30" as="geometry" />
        </mxCell>
        <mxCell id="3OcAJqzGk5esR2HYKRDi-6" value="View posts" style="rounded=1;whiteSpace=wrap;html=1;" vertex="1" parent="1">
          <mxGeometry x="450" y="430" width="120" height="60" as="geometry" />
        </mxCell>
        <mxCell id="3OcAJqzGk5esR2HYKRDi-11" style="edgeStyle=orthogonalEdgeStyle;rounded=0;orthogonalLoop=1;jettySize=auto;html=1;entryX=0.5;entryY=0;entryDx=0;entryDy=0;fontSize=12;startSize=8;endSize=8;" edge="1" parent="1" source="3OcAJqzGk5esR2HYKRDi-8" target="3OcAJqzGk5esR2HYKRDi-9">
          <mxGeometry relative="1" as="geometry" />
        </mxCell>
        <mxCell id="3OcAJqzGk5esR2HYKRDi-15" style="edgeStyle=orthogonalEdgeStyle;rounded=0;orthogonalLoop=1;jettySize=auto;html=1;exitX=0.75;exitY=1;exitDx=0;exitDy=0;entryX=0.5;entryY=0;entryDx=0;entryDy=0;fontSize=12;startSize=8;endSize=8;curved=1;" edge="1" parent="1" source="3OcAJqzGk5esR2HYKRDi-8" target="3OcAJqzGk5esR2HYKRDi-14">
          <mxGeometry relative="1" as="geometry" />
        </mxCell>
        <mxCell id="3OcAJqzGk5esR2HYKRDi-8" value="Login" style="rounded=1;whiteSpace=wrap;html=1;" vertex="1" parent="1">
          <mxGeometry x="280" y="420" width="120" height="60" as="geometry" />
        </mxCell>
        <mxCell id="3OcAJqzGk5esR2HYKRDi-12" style="edgeStyle=orthogonalEdgeStyle;rounded=0;orthogonalLoop=1;jettySize=auto;html=1;entryX=0.203;entryY=1.01;entryDx=0;entryDy=0;fontSize=12;startSize=8;endSize=8;entryPerimeter=0;" edge="1" parent="1" source="3OcAJqzGk5esR2HYKRDi-9" target="3OcAJqzGk5esR2HYKRDi-8">
          <mxGeometry relative="1" as="geometry" />
        </mxCell>
        <mxCell id="3OcAJqzGk5esR2HYKRDi-9" value="Registration" style="rounded=1;whiteSpace=wrap;html=1;" vertex="1" parent="1">
          <mxGeometry x="130" y="500" width="120" height="60" as="geometry" />
        </mxCell>
        <mxCell id="3OcAJqzGk5esR2HYKRDi-16" style="edgeStyle=orthogonalEdgeStyle;rounded=0;orthogonalLoop=1;jettySize=auto;html=1;entryX=0.5;entryY=1;entryDx=0;entryDy=0;fontSize=12;startSize=8;endSize=8;" edge="1" parent="1" source="3OcAJqzGk5esR2HYKRDi-14" target="3OcAJqzGk5esR2HYKRDi-8">
          <mxGeometry relative="1" as="geometry">
            <Array as="points">
              <mxPoint x="340" y="585" />
            </Array>
          </mxGeometry>
        </mxCell>
        <mxCell id="3OcAJqzGk5esR2HYKRDi-20" style="edgeStyle=none;curved=1;rounded=0;orthogonalLoop=1;jettySize=auto;html=1;fontSize=12;startSize=8;endSize=8;" edge="1" parent="1" source="3OcAJqzGk5esR2HYKRDi-14">
          <mxGeometry relative="1" as="geometry">
            <mxPoint x="415" y="680" as="targetPoint" />
          </mxGeometry>
        </mxCell>
        <mxCell id="3OcAJqzGk5esR2HYKRDi-14" value="Authenticated" style="rhombus;whiteSpace=wrap;html=1;align=center;" vertex="1" parent="1">
          <mxGeometry x="370" y="540" width="90" height="90" as="geometry" />
        </mxCell>
        <mxCell id="3OcAJqzGk5esR2HYKRDi-18" value="Invalid" style="text;html=1;align=center;verticalAlign=middle;resizable=0;points=[];autosize=1;strokeColor=none;fillColor=none;fontSize=16;" vertex="1" parent="1">
          <mxGeometry x="280" y="560" width="70" height="30" as="geometry" />
        </mxCell>
        <mxCell id="3OcAJqzGk5esR2HYKRDi-21" value="&lt;div&gt;&lt;span style=&quot;background-color: initial;&quot;&gt;valid&lt;/span&gt;&lt;br&gt;&lt;/div&gt;" style="text;html=1;align=center;verticalAlign=middle;resizable=0;points=[];autosize=1;strokeColor=none;fillColor=none;fontSize=16;" vertex="1" parent="1">
          <mxGeometry x="405" y="640" width="60" height="30" as="geometry" />
        </mxCell>
        <mxCell id="3OcAJqzGk5esR2HYKRDi-23" value="" style="shape=link;html=1;rounded=0;fontSize=12;startSize=8;endSize=8;curved=1;width=15;strokeWidth=2;" edge="1" parent="1">
          <mxGeometry width="100" relative="1" as="geometry">
            <mxPoint x="271" y="690" as="sourcePoint" />
            <mxPoint x="556" y="690" as="targetPoint" />
          </mxGeometry>
        </mxCell>
        <mxCell id="3OcAJqzGk5esR2HYKRDi-24" value="" style="edgeStyle=none;orthogonalLoop=1;jettySize=auto;html=1;rounded=0;fontSize=12;startSize=8;endSize=8;curved=1;entryX=0.5;entryY=1;entryDx=0;entryDy=0;" edge="1" parent="1" target="3OcAJqzGk5esR2HYKRDi-6">
          <mxGeometry width="140" relative="1" as="geometry">
            <mxPoint x="460" y="680" as="sourcePoint" />
            <mxPoint x="610" y="670" as="targetPoint" />
            <Array as="points" />
          </mxGeometry>
        </mxCell>
        <mxCell id="3OcAJqzGk5esR2HYKRDi-29" style="edgeStyle=none;curved=1;rounded=0;orthogonalLoop=1;jettySize=auto;html=1;fontSize=12;startSize=8;endSize=8;" edge="1" parent="1" source="3OcAJqzGk5esR2HYKRDi-25">
          <mxGeometry relative="1" as="geometry">
            <mxPoint x="340" y="920" as="targetPoint" />
          </mxGeometry>
        </mxCell>
        <mxCell id="3OcAJqzGk5esR2HYKRDi-25" value="Write posts" style="rounded=1;whiteSpace=wrap;html=1;" vertex="1" parent="1">
          <mxGeometry x="260" y="760" width="120" height="60" as="geometry" />
        </mxCell>
        <mxCell id="3OcAJqzGk5esR2HYKRDi-27" value="" style="edgeStyle=none;orthogonalLoop=1;jettySize=auto;html=1;rounded=0;fontSize=12;startSize=8;endSize=8;curved=1;entryX=0.5;entryY=0;entryDx=0;entryDy=0;" edge="1" parent="1" target="3OcAJqzGk5esR2HYKRDi-25">
          <mxGeometry width="140" relative="1" as="geometry">
            <mxPoint x="350" y="700" as="sourcePoint" />
            <mxPoint x="500" y="720" as="targetPoint" />
            <Array as="points" />
          </mxGeometry>
        </mxCell>
        <mxCell id="3OcAJqzGk5esR2HYKRDi-28" value="" style="shape=link;html=1;rounded=0;fontSize=12;startSize=8;endSize=8;curved=1;width=15;strokeWidth=2;" edge="1" parent="1">
          <mxGeometry width="100" relative="1" as="geometry">
            <mxPoint x="271" y="930" as="sourcePoint" />
            <mxPoint x="556" y="930" as="targetPoint" />
          </mxGeometry>
        </mxCell>
        <mxCell id="3OcAJqzGk5esR2HYKRDi-30" value="" style="edgeStyle=none;orthogonalLoop=1;jettySize=auto;html=1;rounded=0;fontSize=12;startSize=8;endSize=8;curved=1;entryX=0.5;entryY=0;entryDx=0;entryDy=0;" edge="1" parent="1" target="3OcAJqzGk5esR2HYKRDi-31">
          <mxGeometry width="140" relative="1" as="geometry">
            <mxPoint x="390" y="940" as="sourcePoint" />
            <mxPoint x="390" y="980" as="targetPoint" />
            <Array as="points" />
          </mxGeometry>
        </mxCell>
        <mxCell id="3OcAJqzGk5esR2HYKRDi-33" style="edgeStyle=none;curved=1;rounded=0;orthogonalLoop=1;jettySize=auto;html=1;entryX=0.5;entryY=0;entryDx=0;entryDy=0;fontSize=12;startSize=8;endSize=8;" edge="1" parent="1" source="3OcAJqzGk5esR2HYKRDi-31" target="3OcAJqzGk5esR2HYKRDi-32">
          <mxGeometry relative="1" as="geometry" />
        </mxCell>
        <mxCell id="3OcAJqzGk5esR2HYKRDi-31" value="Logout" style="rounded=1;whiteSpace=wrap;html=1;" vertex="1" parent="1">
          <mxGeometry x="330" y="980" width="120" height="60" as="geometry" />
        </mxCell>
        <mxCell id="3OcAJqzGk5esR2HYKRDi-32" value="" style="ellipse;html=1;shape=endState;fillColor=#000000;strokeColor=#ff0000;" vertex="1" parent="1">
          <mxGeometry x="375" y="1090" width="30" height="30" as="geometry" />
        </mxCell>
        <mxCell id="3OcAJqzGk5esR2HYKRDi-37" style="edgeStyle=orthogonalEdgeStyle;curved=1;rounded=0;orthogonalLoop=1;jettySize=auto;html=1;exitX=1;exitY=0;exitDx=0;exitDy=0;entryX=1;entryY=0.5;entryDx=0;entryDy=0;fontSize=12;startSize=8;endSize=8;" edge="1" parent="1" source="3OcAJqzGk5esR2HYKRDi-34" target="3OcAJqzGk5esR2HYKRDi-6">
          <mxGeometry relative="1" as="geometry">
            <Array as="points">
              <mxPoint x="590" y="740" />
              <mxPoint x="590" y="460" />
            </Array>
          </mxGeometry>
        </mxCell>
        <mxCell id="3OcAJqzGk5esR2HYKRDi-42" style="edgeStyle=none;curved=1;rounded=0;orthogonalLoop=1;jettySize=auto;html=1;exitX=0.25;exitY=1;exitDx=0;exitDy=0;entryX=0.5;entryY=0;entryDx=0;entryDy=0;fontSize=12;startSize=8;endSize=8;" edge="1" parent="1" source="3OcAJqzGk5esR2HYKRDi-34" target="3OcAJqzGk5esR2HYKRDi-39">
          <mxGeometry relative="1" as="geometry" />
        </mxCell>
        <mxCell id="3OcAJqzGk5esR2HYKRDi-43" style="edgeStyle=none;curved=1;rounded=0;orthogonalLoop=1;jettySize=auto;html=1;exitX=1;exitY=1;exitDx=0;exitDy=0;entryX=0;entryY=0;entryDx=0;entryDy=0;fontSize=12;startSize=8;endSize=8;" edge="1" parent="1" source="3OcAJqzGk5esR2HYKRDi-34" target="3OcAJqzGk5esR2HYKRDi-41">
          <mxGeometry relative="1" as="geometry" />
        </mxCell>
        <mxCell id="3OcAJqzGk5esR2HYKRDi-34" value="User page" style="rounded=1;whiteSpace=wrap;html=1;" vertex="1" parent="1">
          <mxGeometry x="450" y="740" width="120" height="60" as="geometry" />
        </mxCell>
        <mxCell id="3OcAJqzGk5esR2HYKRDi-35" value="" style="edgeStyle=none;orthogonalLoop=1;jettySize=auto;html=1;rounded=0;fontSize=12;startSize=8;endSize=8;curved=1;entryX=0.5;entryY=0;entryDx=0;entryDy=0;" edge="1" parent="1" target="3OcAJqzGk5esR2HYKRDi-34">
          <mxGeometry width="140" relative="1" as="geometry">
            <mxPoint x="500" y="700" as="sourcePoint" />
            <mxPoint x="560" y="720" as="targetPoint" />
            <Array as="points" />
          </mxGeometry>
        </mxCell>
        <mxCell id="3OcAJqzGk5esR2HYKRDi-45" style="edgeStyle=none;curved=1;rounded=0;orthogonalLoop=1;jettySize=auto;html=1;exitX=0.5;exitY=1;exitDx=0;exitDy=0;fontSize=12;startSize=8;endSize=8;" edge="1" parent="1" source="3OcAJqzGk5esR2HYKRDi-39">
          <mxGeometry relative="1" as="geometry">
            <mxPoint x="460" y="920" as="targetPoint" />
          </mxGeometry>
        </mxCell>
        <mxCell id="3OcAJqzGk5esR2HYKRDi-39" value="Edit post" style="rounded=1;whiteSpace=wrap;html=1;" vertex="1" parent="1">
          <mxGeometry x="420" y="820" width="120" height="60" as="geometry" />
        </mxCell>
        <mxCell id="3OcAJqzGk5esR2HYKRDi-44" style="edgeStyle=none;curved=1;rounded=0;orthogonalLoop=1;jettySize=auto;html=1;exitX=0;exitY=1;exitDx=0;exitDy=0;fontSize=12;startSize=8;endSize=8;" edge="1" parent="1" source="3OcAJqzGk5esR2HYKRDi-41">
          <mxGeometry relative="1" as="geometry">
            <mxPoint x="520" y="920" as="targetPoint" />
          </mxGeometry>
        </mxCell>
        <mxCell id="3OcAJqzGk5esR2HYKRDi-41" value="Remove post" style="rounded=1;whiteSpace=wrap;html=1;" vertex="1" parent="1">
          <mxGeometry x="580" y="820" width="120" height="60" as="geometry" />
        </mxCell>
      </root>
    </mxGraphModel>
  </diagram>
  <diagram name="02-Purchase" id="mJyV6PxVWnoGb_oMYTS3">
    <mxGraphModel dx="1021" dy="518" grid="1" gridSize="10" guides="1" tooltips="1" connect="1" arrows="1" fold="1" page="1" pageScale="1" pageWidth="1169" pageHeight="826" background="none" math="0" shadow="0">
      <root>
        <mxCell id="eyspusqXt9dTFEmAIll9-0" />
        <mxCell id="eyspusqXt9dTFEmAIll9-1" parent="eyspusqXt9dTFEmAIll9-0" />
        <mxCell id="0vI4m7N15hpGPnX4GxwY-43" style="edgeStyle=orthogonalEdgeStyle;rounded=0;orthogonalLoop=1;jettySize=auto;html=1;entryX=0.994;entryY=0.533;entryDx=0;entryDy=0;entryPerimeter=0;strokeWidth=1;fontFamily=Times New Roman;" edge="1" parent="eyspusqXt9dTFEmAIll9-1" target="0vI4m7N15hpGPnX4GxwY-42">
          <mxGeometry relative="1" as="geometry">
            <mxPoint x="910" y="1031" as="sourcePoint" />
            <Array as="points">
              <mxPoint x="920" y="1031" />
              <mxPoint x="920" y="1082" />
            </Array>
          </mxGeometry>
        </mxCell>
        <mxCell id="0vI4m7N15hpGPnX4GxwY-41" style="edgeStyle=orthogonalEdgeStyle;rounded=0;orthogonalLoop=1;jettySize=auto;html=1;strokeWidth=1;fontFamily=Times New Roman;" edge="1" parent="eyspusqXt9dTFEmAIll9-1">
          <mxGeometry relative="1" as="geometry">
            <mxPoint x="930" y="1042" as="sourcePoint" />
            <mxPoint x="350" y="1036" as="targetPoint" />
            <Array as="points">
              <mxPoint x="930" y="1036" />
            </Array>
          </mxGeometry>
        </mxCell>
        <mxCell id="0vI4m7N15hpGPnX4GxwY-37" style="edgeStyle=orthogonalEdgeStyle;rounded=0;orthogonalLoop=1;jettySize=auto;html=1;entryX=1.004;entryY=0.563;entryDx=0;entryDy=0;entryPerimeter=0;strokeWidth=1;fontFamily=Times New Roman;" edge="1" parent="eyspusqXt9dTFEmAIll9-1" target="0vI4m7N15hpGPnX4GxwY-36">
          <mxGeometry relative="1" as="geometry">
            <mxPoint x="920" y="951" as="sourcePoint" />
            <Array as="points">
              <mxPoint x="920" y="983" />
            </Array>
          </mxGeometry>
        </mxCell>
        <mxCell id="0vI4m7N15hpGPnX4GxwY-35" style="edgeStyle=orthogonalEdgeStyle;rounded=0;orthogonalLoop=1;jettySize=auto;html=1;strokeWidth=1;fontFamily=Times New Roman;" edge="1" parent="eyspusqXt9dTFEmAIll9-1" source="0vI4m7N15hpGPnX4GxwY-24">
          <mxGeometry relative="1" as="geometry">
            <mxPoint x="870" y="951" as="targetPoint" />
            <Array as="points">
              <mxPoint x="740" y="951" />
            </Array>
          </mxGeometry>
        </mxCell>
        <mxCell id="0vI4m7N15hpGPnX4GxwY-33" style="edgeStyle=orthogonalEdgeStyle;rounded=0;orthogonalLoop=1;jettySize=auto;html=1;entryX=1.004;entryY=0.579;entryDx=0;entryDy=0;entryPerimeter=0;strokeWidth=1;fontFamily=Times New Roman;" edge="1" parent="eyspusqXt9dTFEmAIll9-1" source="0vI4m7N15hpGPnX4GxwY-24" target="0vI4m7N15hpGPnX4GxwY-32">
          <mxGeometry relative="1" as="geometry">
            <Array as="points">
              <mxPoint x="740" y="914" />
            </Array>
          </mxGeometry>
        </mxCell>
        <mxCell id="0vI4m7N15hpGPnX4GxwY-28" style="edgeStyle=orthogonalEdgeStyle;rounded=0;orthogonalLoop=1;jettySize=auto;html=1;entryX=1.016;entryY=0.517;entryDx=0;entryDy=0;entryPerimeter=0;strokeWidth=1;fontFamily=Times New Roman;" edge="1" parent="eyspusqXt9dTFEmAIll9-1" source="0vI4m7N15hpGPnX4GxwY-25" target="0vI4m7N15hpGPnX4GxwY-24">
          <mxGeometry relative="1" as="geometry" />
        </mxCell>
        <mxCell id="0vI4m7N15hpGPnX4GxwY-26" style="edgeStyle=orthogonalEdgeStyle;rounded=0;orthogonalLoop=1;jettySize=auto;html=1;entryX=-0.003;entryY=0.502;entryDx=0;entryDy=0;entryPerimeter=0;strokeWidth=1;fontFamily=Times New Roman;" edge="1" parent="eyspusqXt9dTFEmAIll9-1" source="0vI4m7N15hpGPnX4GxwY-17" target="0vI4m7N15hpGPnX4GxwY-23">
          <mxGeometry relative="1" as="geometry" />
        </mxCell>
        <mxCell id="0vI4m7N15hpGPnX4GxwY-12" style="edgeStyle=orthogonalEdgeStyle;rounded=0;orthogonalLoop=1;jettySize=auto;html=1;strokeWidth=1;fontFamily=Times New Roman;" edge="1" parent="eyspusqXt9dTFEmAIll9-1">
          <mxGeometry relative="1" as="geometry">
            <mxPoint x="370" y="806" as="targetPoint" />
            <mxPoint x="510" y="761" as="sourcePoint" />
            <Array as="points">
              <mxPoint x="510" y="806" />
            </Array>
          </mxGeometry>
        </mxCell>
        <mxCell id="0vI4m7N15hpGPnX4GxwY-2" style="edgeStyle=orthogonalEdgeStyle;rounded=0;orthogonalLoop=1;jettySize=auto;html=1;entryX=0.004;entryY=0.533;entryDx=0;entryDy=0;entryPerimeter=0;fontFamily=Times New Roman;" edge="1" parent="eyspusqXt9dTFEmAIll9-1" target="CTUg7CmSzIj1mtE9K3FL-24">
          <mxGeometry relative="1" as="geometry">
            <mxPoint x="300" y="501" as="sourcePoint" />
            <Array as="points">
              <mxPoint x="300" y="562" />
            </Array>
          </mxGeometry>
        </mxCell>
        <mxCell id="CTUg7CmSzIj1mtE9K3FL-29" style="edgeStyle=orthogonalEdgeStyle;rounded=0;orthogonalLoop=1;jettySize=auto;html=1;entryX=0.004;entryY=0.476;entryDx=0;entryDy=0;entryPerimeter=0;fontFamily=Times New Roman;" edge="1" parent="eyspusqXt9dTFEmAIll9-1" source="eyspusqXt9dTFEmAIll9-12" target="CTUg7CmSzIj1mtE9K3FL-0">
          <mxGeometry relative="1" as="geometry" />
        </mxCell>
        <mxCell id="CTUg7CmSzIj1mtE9K3FL-28" style="edgeStyle=orthogonalEdgeStyle;rounded=0;orthogonalLoop=1;jettySize=auto;html=1;entryX=1;entryY=0.526;entryDx=0;entryDy=0;entryPerimeter=0;fontFamily=Times New Roman;" edge="1" parent="eyspusqXt9dTFEmAIll9-1" source="CTUg7CmSzIj1mtE9K3FL-0" target="CTUg7CmSzIj1mtE9K3FL-2">
          <mxGeometry relative="1" as="geometry">
            <Array as="points">
              <mxPoint x="525" y="142" />
            </Array>
          </mxGeometry>
        </mxCell>
        <mxCell id="CTUg7CmSzIj1mtE9K3FL-23" style="edgeStyle=orthogonalEdgeStyle;rounded=0;orthogonalLoop=1;jettySize=auto;html=1;entryX=1.036;entryY=0.517;entryDx=0;entryDy=0;entryPerimeter=0;fontFamily=Times New Roman;" edge="1" parent="eyspusqXt9dTFEmAIll9-1" source="CTUg7CmSzIj1mtE9K3FL-18" target="CTUg7CmSzIj1mtE9K3FL-22">
          <mxGeometry relative="1" as="geometry" />
        </mxCell>
        <mxCell id="eyspusqXt9dTFEmAIll9-9" value="Customer" style="swimlane;whiteSpace=wrap;fontFamily=Times New Roman;" vertex="1" parent="eyspusqXt9dTFEmAIll9-1">
          <mxGeometry x="170" y="20" width="240" height="1110" as="geometry" />
        </mxCell>
        <mxCell id="0vI4m7N15hpGPnX4GxwY-45" style="edgeStyle=orthogonalEdgeStyle;rounded=0;orthogonalLoop=1;jettySize=auto;html=1;entryX=0.5;entryY=0;entryDx=0;entryDy=0;strokeWidth=1;fontFamily=Times New Roman;" edge="1" parent="eyspusqXt9dTFEmAIll9-9" source="0vI4m7N15hpGPnX4GxwY-40" target="eyspusqXt9dTFEmAIll9-31">
          <mxGeometry relative="1" as="geometry" />
        </mxCell>
        <mxCell id="CTUg7CmSzIj1mtE9K3FL-9" style="edgeStyle=orthogonalEdgeStyle;rounded=0;orthogonalLoop=1;jettySize=auto;html=1;entryX=0.5;entryY=0;entryDx=0;entryDy=0;entryPerimeter=0;fontFamily=Times New Roman;" edge="1" parent="eyspusqXt9dTFEmAIll9-9" source="CTUg7CmSzIj1mtE9K3FL-6" target="CTUg7CmSzIj1mtE9K3FL-8">
          <mxGeometry relative="1" as="geometry" />
        </mxCell>
        <mxCell id="eyspusqXt9dTFEmAIll9-10" style="edgeStyle=orthogonalEdgeStyle;rounded=0;orthogonalLoop=1;jettySize=auto;html=1;entryX=-0.024;entryY=0.395;entryDx=0;entryDy=0;entryPerimeter=0;" edge="1" parent="eyspusqXt9dTFEmAIll9-9">
          <mxGeometry relative="1" as="geometry">
            <mxPoint x="65.49999666666622" y="62.00999999999999" as="sourcePoint" />
            <mxPoint x="113.52600000000007" y="62.00999999999999" as="targetPoint" />
          </mxGeometry>
        </mxCell>
        <mxCell id="eyspusqXt9dTFEmAIll9-11" value="v" style="ellipse;shape=startState;fillColor=#000000;strokeColor=#000000;" vertex="1" parent="eyspusqXt9dTFEmAIll9-9">
          <mxGeometry x="35.5" y="46" width="30" height="30" as="geometry" />
        </mxCell>
        <mxCell id="eyspusqXt9dTFEmAIll9-12" value="&lt;div&gt;Website &lt;br&gt;&lt;/div&gt;&lt;div&gt;Access&lt;br&gt;&lt;/div&gt;" style="rounded=1;whiteSpace=wrap;html=1;strokeColor=#000000;fillColor=#FFFFFF;fontFamily=Times New Roman;" vertex="1" parent="eyspusqXt9dTFEmAIll9-9">
          <mxGeometry x="115.5" y="42" width="82.25" height="38" as="geometry" />
        </mxCell>
        <mxCell id="CTUg7CmSzIj1mtE9K3FL-11" style="edgeStyle=orthogonalEdgeStyle;rounded=0;orthogonalLoop=1;jettySize=auto;html=1;fontFamily=Times New Roman;" edge="1" parent="eyspusqXt9dTFEmAIll9-9" source="eyspusqXt9dTFEmAIll9-13">
          <mxGeometry relative="1" as="geometry">
            <mxPoint x="140" y="242" as="targetPoint" />
          </mxGeometry>
        </mxCell>
        <mxCell id="eyspusqXt9dTFEmAIll9-13" value="Product Choose" style="rounded=1;whiteSpace=wrap;html=1;strokeColor=#000000;fillColor=#FFFFFF;fontFamily=Times New Roman;" vertex="1" parent="eyspusqXt9dTFEmAIll9-9">
          <mxGeometry x="80" y="172" width="120" height="38" as="geometry" />
        </mxCell>
        <mxCell id="CTUg7CmSzIj1mtE9K3FL-12" style="edgeStyle=orthogonalEdgeStyle;rounded=0;orthogonalLoop=1;jettySize=auto;html=1;entryX=0.503;entryY=-0.006;entryDx=0;entryDy=0;entryPerimeter=0;fontFamily=Times New Roman;" edge="1" parent="eyspusqXt9dTFEmAIll9-9" source="CTUg7CmSzIj1mtE9K3FL-2" target="eyspusqXt9dTFEmAIll9-13">
          <mxGeometry relative="1" as="geometry" />
        </mxCell>
        <mxCell id="CTUg7CmSzIj1mtE9K3FL-2" value="&lt;div&gt;Website Display&lt;br&gt;&lt;/div&gt;" style="rounded=1;whiteSpace=wrap;html=1;strokeColor=#000000;fillColor=#FFFFFF;fontFamily=Times New Roman;" vertex="1" parent="eyspusqXt9dTFEmAIll9-9">
          <mxGeometry x="80" y="102" width="120" height="38" as="geometry" />
        </mxCell>
        <mxCell id="CTUg7CmSzIj1mtE9K3FL-6" value="Add to Shopping Cart" style="rounded=1;whiteSpace=wrap;html=1;strokeColor=#000000;fillColor=#FFFFFF;fontFamily=Times New Roman;" vertex="1" parent="eyspusqXt9dTFEmAIll9-9">
          <mxGeometry x="78.75" y="242" width="120" height="38" as="geometry" />
        </mxCell>
        <mxCell id="CTUg7CmSzIj1mtE9K3FL-15" style="edgeStyle=orthogonalEdgeStyle;rounded=0;orthogonalLoop=1;jettySize=auto;html=1;entryX=0.5;entryY=0;entryDx=0;entryDy=0;fontFamily=Times New Roman;" edge="1" parent="eyspusqXt9dTFEmAIll9-9" source="CTUg7CmSzIj1mtE9K3FL-8" target="CTUg7CmSzIj1mtE9K3FL-14">
          <mxGeometry relative="1" as="geometry" />
        </mxCell>
        <mxCell id="CTUg7CmSzIj1mtE9K3FL-8" value="Purchase Data Entry" style="rounded=1;whiteSpace=wrap;html=1;strokeColor=#000000;fillColor=#FFFFFF;fontFamily=Times New Roman;" vertex="1" parent="eyspusqXt9dTFEmAIll9-9">
          <mxGeometry x="78.75" y="312" width="120" height="38" as="geometry" />
        </mxCell>
        <mxCell id="CTUg7CmSzIj1mtE9K3FL-16" style="edgeStyle=orthogonalEdgeStyle;rounded=0;orthogonalLoop=1;jettySize=auto;html=1;entryX=0;entryY=0.526;entryDx=0;entryDy=0;entryPerimeter=0;fontFamily=Times New Roman;" edge="1" parent="eyspusqXt9dTFEmAIll9-9" source="CTUg7CmSzIj1mtE9K3FL-14" target="CTUg7CmSzIj1mtE9K3FL-2">
          <mxGeometry relative="1" as="geometry">
            <Array as="points">
              <mxPoint x="50" y="416" />
              <mxPoint x="50" y="122" />
            </Array>
          </mxGeometry>
        </mxCell>
        <mxCell id="CTUg7CmSzIj1mtE9K3FL-14" value="Checkout ?" style="rhombus;fillColor=#dae8fc;strokeColor=#6c8ebf;fontFamily=Times New Roman;" vertex="1" parent="eyspusqXt9dTFEmAIll9-9">
          <mxGeometry x="83.75" y="382" width="110" height="68" as="geometry" />
        </mxCell>
        <mxCell id="CTUg7CmSzIj1mtE9K3FL-22" value="Payment Method Selection" style="rounded=1;whiteSpace=wrap;html=1;strokeColor=#000000;fillColor=#FFFFFF;fontFamily=Times New Roman;fontStyle=0" vertex="1" parent="eyspusqXt9dTFEmAIll9-9">
          <mxGeometry x="77.75" y="462" width="120" height="38" as="geometry" />
        </mxCell>
        <mxCell id="0vI4m7N15hpGPnX4GxwY-0" value="&lt;div&gt;Display &lt;br&gt;&lt;/div&gt;&lt;div&gt;&quot;Payment Fail&quot; Page&lt;/div&gt;" style="rounded=1;whiteSpace=wrap;html=1;strokeColor=#000000;fillColor=#FFFFFF;fontFamily=Times New Roman;" vertex="1" parent="eyspusqXt9dTFEmAIll9-9">
          <mxGeometry x="80" y="597" width="120" height="48" as="geometry" />
        </mxCell>
        <mxCell id="0vI4m7N15hpGPnX4GxwY-7" value="&lt;div&gt;Display &lt;br&gt;&lt;/div&gt;&lt;div&gt;&quot;Payment Succesful&quot; Page&lt;/div&gt;" style="rounded=1;whiteSpace=wrap;html=1;strokeColor=#000000;fillColor=#FFFFFF;fontFamily=Times New Roman;" vertex="1" parent="eyspusqXt9dTFEmAIll9-9">
          <mxGeometry x="80" y="684" width="120" height="48" as="geometry" />
        </mxCell>
        <mxCell id="0vI4m7N15hpGPnX4GxwY-11" value="Recived Order Confirmation" style="rounded=1;whiteSpace=wrap;html=1;strokeColor=#000000;fillColor=#FFFFFF;fontFamily=Times New Roman;" vertex="1" parent="eyspusqXt9dTFEmAIll9-9">
          <mxGeometry x="77.75" y="762" width="120" height="48" as="geometry" />
        </mxCell>
        <mxCell id="0vI4m7N15hpGPnX4GxwY-40" value="Recived Pacakges" style="rounded=1;whiteSpace=wrap;html=1;strokeColor=#000000;fillColor=#FFFFFF;fontFamily=Times New Roman;" vertex="1" parent="eyspusqXt9dTFEmAIll9-9">
          <mxGeometry x="78.75" y="992" width="120" height="48" as="geometry" />
        </mxCell>
        <mxCell id="eyspusqXt9dTFEmAIll9-31" value="" style="ellipse;shape=endState;fillColor=#000000;strokeColor=#000000;" vertex="1" parent="eyspusqXt9dTFEmAIll9-9">
          <mxGeometry x="122.75" y="1060" width="30" height="30" as="geometry" />
        </mxCell>
        <mxCell id="eyspusqXt9dTFEmAIll9-17" value="System" style="swimlane;whiteSpace=wrap;fontFamily=Times New Roman;" vertex="1" parent="eyspusqXt9dTFEmAIll9-1">
          <mxGeometry x="410" y="20" width="230" height="1110" as="geometry">
            <mxRectangle x="444.5" y="128" width="210" height="30" as="alternateBounds" />
          </mxGeometry>
        </mxCell>
        <mxCell id="CTUg7CmSzIj1mtE9K3FL-0" value="Login" style="rounded=1;whiteSpace=wrap;html=1;strokeColor=#000000;fillColor=#FFFFFF;fontFamily=Times New Roman;" vertex="1" parent="eyspusqXt9dTFEmAIll9-17">
          <mxGeometry x="77.5" y="42" width="75" height="40" as="geometry" />
        </mxCell>
        <mxCell id="CTUg7CmSzIj1mtE9K3FL-20" style="edgeStyle=orthogonalEdgeStyle;rounded=0;orthogonalLoop=1;jettySize=auto;html=1;entryX=0.496;entryY=0.035;entryDx=0;entryDy=0;entryPerimeter=0;fontFamily=Times New Roman;" edge="1" parent="eyspusqXt9dTFEmAIll9-17" source="CTUg7CmSzIj1mtE9K3FL-17" target="CTUg7CmSzIj1mtE9K3FL-18">
          <mxGeometry relative="1" as="geometry" />
        </mxCell>
        <mxCell id="CTUg7CmSzIj1mtE9K3FL-17" value="Calculate Cost" style="rounded=1;whiteSpace=wrap;html=1;strokeColor=#000000;fillColor=#FFFFFF;fontFamily=Times New Roman;" vertex="1" parent="eyspusqXt9dTFEmAIll9-17">
          <mxGeometry x="77.5" y="401" width="75" height="40" as="geometry" />
        </mxCell>
        <mxCell id="CTUg7CmSzIj1mtE9K3FL-18" value="Order Page View" style="rounded=1;whiteSpace=wrap;html=1;strokeColor=#000000;fillColor=#FFFFFF;fontFamily=Times New Roman;" vertex="1" parent="eyspusqXt9dTFEmAIll9-17">
          <mxGeometry x="77.5" y="462" width="75" height="40" as="geometry" />
        </mxCell>
        <mxCell id="CTUg7CmSzIj1mtE9K3FL-30" style="edgeStyle=orthogonalEdgeStyle;rounded=0;orthogonalLoop=1;jettySize=auto;html=1;entryX=0.5;entryY=0;entryDx=0;entryDy=0;fontFamily=Times New Roman;" edge="1" parent="eyspusqXt9dTFEmAIll9-17" source="CTUg7CmSzIj1mtE9K3FL-24" target="CTUg7CmSzIj1mtE9K3FL-27">
          <mxGeometry relative="1" as="geometry" />
        </mxCell>
        <mxCell id="CTUg7CmSzIj1mtE9K3FL-24" value="Payment Verification" style="rounded=1;whiteSpace=wrap;html=1;strokeColor=#000000;fillColor=#FFFFFF;fontFamily=Times New Roman;" vertex="1" parent="eyspusqXt9dTFEmAIll9-17">
          <mxGeometry x="55" y="522" width="120" height="38" as="geometry" />
        </mxCell>
        <mxCell id="CTUg7CmSzIj1mtE9K3FL-27" value="&#xa;Payment &#xa;Successful?&#xa;" style="rhombus;fillColor=#dae8fc;strokeColor=#6c8ebf;fontFamily=Times New Roman;" vertex="1" parent="eyspusqXt9dTFEmAIll9-17">
          <mxGeometry x="60" y="587" width="110" height="58" as="geometry" />
        </mxCell>
        <mxCell id="0vI4m7N15hpGPnX4GxwY-30" style="edgeStyle=orthogonalEdgeStyle;rounded=0;orthogonalLoop=1;jettySize=auto;html=1;entryX=0.504;entryY=0.022;entryDx=0;entryDy=0;entryPerimeter=0;strokeWidth=1;fontFamily=Times New Roman;" edge="1" parent="eyspusqXt9dTFEmAIll9-17" source="0vI4m7N15hpGPnX4GxwY-9" target="0vI4m7N15hpGPnX4GxwY-29">
          <mxGeometry relative="1" as="geometry" />
        </mxCell>
        <mxCell id="0vI4m7N15hpGPnX4GxwY-9" value="Send Order Confirmation by E-mail" style="rounded=1;whiteSpace=wrap;html=1;strokeColor=#000000;fillColor=#FFFFFF;fontFamily=Times New Roman;" vertex="1" parent="eyspusqXt9dTFEmAIll9-17">
          <mxGeometry x="55" y="722" width="120" height="38" as="geometry" />
        </mxCell>
        <mxCell id="0vI4m7N15hpGPnX4GxwY-29" value="&lt;div&gt;Order Status&lt;/div&gt;&lt;div&gt;&amp;nbsp;“New”/“Paid”&lt;/div&gt;" style="rounded=1;whiteSpace=wrap;html=1;strokeColor=#000000;fillColor=#FFFFFF;fontFamily=Times New Roman;fontStyle=0" vertex="1" parent="eyspusqXt9dTFEmAIll9-17">
          <mxGeometry x="55" y="804" width="120" height="38" as="geometry" />
        </mxCell>
        <mxCell id="0vI4m7N15hpGPnX4GxwY-32" value="&lt;div&gt;Update Order Status &lt;br&gt;&lt;/div&gt;&lt;div&gt;“Picked”&lt;/div&gt;" style="rounded=1;whiteSpace=wrap;html=1;strokeColor=#000000;fillColor=#FFFFFF;fontFamily=Times New Roman;" vertex="1" parent="eyspusqXt9dTFEmAIll9-17">
          <mxGeometry x="55" y="872" width="120" height="38" as="geometry" />
        </mxCell>
        <mxCell id="0vI4m7N15hpGPnX4GxwY-36" value="&lt;div&gt;Update Order Status &lt;br&gt;&lt;/div&gt;&lt;div&gt;“Shipping”&lt;/div&gt;" style="rounded=1;whiteSpace=wrap;html=1;strokeColor=#000000;fillColor=#FFFFFF;fontFamily=Times New Roman;" vertex="1" parent="eyspusqXt9dTFEmAIll9-17">
          <mxGeometry x="55" y="942" width="120" height="38" as="geometry" />
        </mxCell>
        <mxCell id="0vI4m7N15hpGPnX4GxwY-42" value="&lt;div&gt;Update Order Status &lt;br&gt;&lt;/div&gt;&lt;div&gt;“Deliverd”&lt;/div&gt;" style="rounded=1;whiteSpace=wrap;html=1;strokeColor=#000000;fillColor=#FFFFFF;fontFamily=Times New Roman;" vertex="1" parent="eyspusqXt9dTFEmAIll9-17">
          <mxGeometry x="55" y="1042" width="120" height="38" as="geometry" />
        </mxCell>
        <mxCell id="eyspusqXt9dTFEmAIll9-36" value="Salesperson" style="swimlane;whiteSpace=wrap;fontFamily=Times New Roman;" vertex="1" parent="eyspusqXt9dTFEmAIll9-1">
          <mxGeometry x="640" y="20" width="190" height="1110" as="geometry" />
        </mxCell>
        <mxCell id="0vI4m7N15hpGPnX4GxwY-19" style="edgeStyle=orthogonalEdgeStyle;rounded=0;orthogonalLoop=1;jettySize=auto;html=1;strokeWidth=1;fontFamily=Times New Roman;entryX=0.497;entryY=0.006;entryDx=0;entryDy=0;entryPerimeter=0;" edge="1" parent="eyspusqXt9dTFEmAIll9-36" source="0vI4m7N15hpGPnX4GxwY-13" target="0vI4m7N15hpGPnX4GxwY-17">
          <mxGeometry relative="1" as="geometry" />
        </mxCell>
        <mxCell id="0vI4m7N15hpGPnX4GxwY-13" value="Receive Order " style="rounded=1;whiteSpace=wrap;html=1;strokeColor=#000000;fillColor=#FFFFFF;fontFamily=Times New Roman;" vertex="1" parent="eyspusqXt9dTFEmAIll9-36">
          <mxGeometry x="40" y="682" width="120" height="38" as="geometry" />
        </mxCell>
        <mxCell id="0vI4m7N15hpGPnX4GxwY-17" value="Contact Shipper" style="rounded=1;whiteSpace=wrap;html=1;strokeColor=#000000;fillColor=#FFFFFF;fontFamily=Times New Roman;" vertex="1" parent="eyspusqXt9dTFEmAIll9-36">
          <mxGeometry x="40" y="772" width="120" height="38" as="geometry" />
        </mxCell>
        <mxCell id="0vI4m7N15hpGPnX4GxwY-24" value="Deliver to the Shipper" style="rounded=1;whiteSpace=wrap;html=1;strokeColor=#000000;fillColor=#FFFFFF;fontFamily=Times New Roman;" vertex="1" parent="eyspusqXt9dTFEmAIll9-36">
          <mxGeometry x="40" y="842" width="120" height="38" as="geometry" />
        </mxCell>
        <mxCell id="CTUg7CmSzIj1mtE9K3FL-19" style="edgeStyle=orthogonalEdgeStyle;rounded=0;orthogonalLoop=1;jettySize=auto;html=1;entryX=-0.068;entryY=0.359;entryDx=0;entryDy=0;entryPerimeter=0;fontFamily=Times New Roman;" edge="1" parent="eyspusqXt9dTFEmAIll9-1" source="CTUg7CmSzIj1mtE9K3FL-14" target="CTUg7CmSzIj1mtE9K3FL-17">
          <mxGeometry relative="1" as="geometry" />
        </mxCell>
        <mxCell id="0vI4m7N15hpGPnX4GxwY-1" style="edgeStyle=orthogonalEdgeStyle;rounded=0;orthogonalLoop=1;jettySize=auto;html=1;entryX=1.006;entryY=0.397;entryDx=0;entryDy=0;entryPerimeter=0;fontFamily=Times New Roman;" edge="1" parent="eyspusqXt9dTFEmAIll9-1" source="CTUg7CmSzIj1mtE9K3FL-27" target="0vI4m7N15hpGPnX4GxwY-0">
          <mxGeometry relative="1" as="geometry" />
        </mxCell>
        <mxCell id="0vI4m7N15hpGPnX4GxwY-3" style="edgeStyle=orthogonalEdgeStyle;rounded=0;orthogonalLoop=1;jettySize=auto;html=1;fontFamily=Times New Roman;" edge="1" parent="eyspusqXt9dTFEmAIll9-1" source="CTUg7CmSzIj1mtE9K3FL-27">
          <mxGeometry relative="1" as="geometry">
            <mxPoint x="525" y="692" as="targetPoint" />
          </mxGeometry>
        </mxCell>
        <mxCell id="0vI4m7N15hpGPnX4GxwY-6" value="" style="endArrow=none;html=1;rounded=0;fontFamily=Times New Roman;strokeWidth=5;" edge="1" parent="eyspusqXt9dTFEmAIll9-1">
          <mxGeometry width="50" height="50" relative="1" as="geometry">
            <mxPoint x="470" y="692" as="sourcePoint" />
            <mxPoint x="580" y="692" as="targetPoint" />
          </mxGeometry>
        </mxCell>
        <mxCell id="0vI4m7N15hpGPnX4GxwY-8" style="edgeStyle=orthogonalEdgeStyle;rounded=0;orthogonalLoop=1;jettySize=auto;html=1;strokeWidth=1;fontFamily=Times New Roman;" edge="1" parent="eyspusqXt9dTFEmAIll9-1">
          <mxGeometry relative="1" as="geometry">
            <mxPoint x="370" y="722" as="targetPoint" />
            <mxPoint x="500" y="692" as="sourcePoint" />
            <Array as="points">
              <mxPoint x="500" y="722" />
            </Array>
          </mxGeometry>
        </mxCell>
        <mxCell id="0vI4m7N15hpGPnX4GxwY-10" style="edgeStyle=orthogonalEdgeStyle;rounded=0;orthogonalLoop=1;jettySize=auto;html=1;strokeWidth=1;fontFamily=Times New Roman;entryX=0.504;entryY=0.006;entryDx=0;entryDy=0;entryPerimeter=0;" edge="1" parent="eyspusqXt9dTFEmAIll9-1" target="0vI4m7N15hpGPnX4GxwY-9">
          <mxGeometry relative="1" as="geometry">
            <mxPoint x="360" y="752" as="targetPoint" />
            <mxPoint x="520" y="692" as="sourcePoint" />
            <Array as="points">
              <mxPoint x="525" y="692" />
            </Array>
          </mxGeometry>
        </mxCell>
        <mxCell id="0vI4m7N15hpGPnX4GxwY-20" value="Salesperson" style="swimlane;whiteSpace=wrap;fontFamily=Times New Roman;" vertex="1" parent="eyspusqXt9dTFEmAIll9-1">
          <mxGeometry x="830" y="20" width="190" height="1110" as="geometry" />
        </mxCell>
        <mxCell id="0vI4m7N15hpGPnX4GxwY-39" style="edgeStyle=orthogonalEdgeStyle;rounded=0;orthogonalLoop=1;jettySize=auto;html=1;entryX=0.501;entryY=-0.04;entryDx=0;entryDy=0;entryPerimeter=0;strokeWidth=1;fontFamily=Times New Roman;" edge="1" parent="0vI4m7N15hpGPnX4GxwY-20" source="0vI4m7N15hpGPnX4GxwY-34" target="0vI4m7N15hpGPnX4GxwY-38">
          <mxGeometry relative="1" as="geometry" />
        </mxCell>
        <mxCell id="0vI4m7N15hpGPnX4GxwY-27" style="edgeStyle=orthogonalEdgeStyle;rounded=0;orthogonalLoop=1;jettySize=auto;html=1;entryX=0.497;entryY=-0.04;entryDx=0;entryDy=0;entryPerimeter=0;strokeWidth=1;fontFamily=Times New Roman;" edge="1" parent="0vI4m7N15hpGPnX4GxwY-20" source="0vI4m7N15hpGPnX4GxwY-23" target="0vI4m7N15hpGPnX4GxwY-25">
          <mxGeometry relative="1" as="geometry" />
        </mxCell>
        <mxCell id="0vI4m7N15hpGPnX4GxwY-23" value="Receive Order" style="rounded=1;whiteSpace=wrap;html=1;strokeColor=#000000;fillColor=#FFFFFF;fontFamily=Times New Roman;" vertex="1" parent="0vI4m7N15hpGPnX4GxwY-20">
          <mxGeometry x="30" y="772" width="120" height="38" as="geometry" />
        </mxCell>
        <mxCell id="0vI4m7N15hpGPnX4GxwY-25" value="Turn to the warehouse" style="rounded=1;whiteSpace=wrap;html=1;strokeColor=#000000;fillColor=#FFFFFF;fontFamily=Times New Roman;" vertex="1" parent="0vI4m7N15hpGPnX4GxwY-20">
          <mxGeometry x="30" y="842" width="120" height="38" as="geometry" />
        </mxCell>
        <mxCell id="0vI4m7N15hpGPnX4GxwY-34" value="Got Packages" style="rounded=1;whiteSpace=wrap;html=1;strokeColor=#000000;fillColor=#FFFFFF;fontFamily=Times New Roman;" vertex="1" parent="0vI4m7N15hpGPnX4GxwY-20">
          <mxGeometry x="30" y="912" width="120" height="38" as="geometry" />
        </mxCell>
        <mxCell id="0vI4m7N15hpGPnX4GxwY-38" value="Shiiping to the Customer" style="rounded=1;whiteSpace=wrap;html=1;strokeColor=#000000;fillColor=#FFFFFF;fontFamily=Times New Roman;" vertex="1" parent="0vI4m7N15hpGPnX4GxwY-20">
          <mxGeometry x="30" y="992" width="120" height="38" as="geometry" />
        </mxCell>
        <mxCell id="0vI4m7N15hpGPnX4GxwY-31" style="edgeStyle=orthogonalEdgeStyle;rounded=0;orthogonalLoop=1;jettySize=auto;html=1;strokeWidth=1;fontFamily=Times New Roman;entryX=0;entryY=0.526;entryDx=0;entryDy=0;entryPerimeter=0;" edge="1" parent="eyspusqXt9dTFEmAIll9-1" target="0vI4m7N15hpGPnX4GxwY-13">
          <mxGeometry relative="1" as="geometry">
            <mxPoint x="670" y="722" as="targetPoint" />
            <mxPoint x="550" y="692" as="sourcePoint" />
            <Array as="points">
              <mxPoint x="550" y="722" />
            </Array>
          </mxGeometry>
        </mxCell>
      </root>
    </mxGraphModel>
  </diagram>
  <diagram name="Page-3" id="glWQ5AfRPKKfGCnxnSg2">
    <mxGraphModel dx="868" dy="440" grid="1" gridSize="10" guides="1" tooltips="1" connect="1" arrows="1" fold="1" page="1" pageScale="1" pageWidth="850" pageHeight="1100" math="0" shadow="0">
      <root>
        <mxCell id="0" />
        <mxCell id="1" parent="0" />
      </root>
    </mxGraphModel>
  </diagram>
</mxfile>
